<?xml version="1.0" encoding="UTF-8"?>
<!DOCTYPE svg PUBLIC "-//W3C//DTD SVG 1.1//EN" "http://www.w3.org/Graphics/SVG/1.1/DTD/svg11.dtd">
<svg xmlns="http://www.w3.org/2000/svg" xmlns:xlink="http://www.w3.org/1999/xlink" version="1.1" width="1138px" height="760px" viewBox="-0.5 -0.5 1138 760"><defs><clipPath id="mx-clip-332-27-120-28-0"><rect x="332" y="27" width="120" height="28"/></clipPath><clipPath id="mx-clip-302-27-20-28-0"><rect x="302" y="27" width="20" height="28"/></clipPath><clipPath id="mx-clip-332-62-120-24-0"><rect x="332" y="62" width="120" height="24"/></clipPath><clipPath id="mx-clip-332-88-120-24-0"><rect x="332" y="88" width="120" height="24"/></clipPath><clipPath id="mx-clip-332-114-120-24-0"><rect x="332" y="114" width="120" height="24"/></clipPath><clipPath id="mx-clip-332-140-120-24-0"><rect x="332" y="140" width="120" height="24"/></clipPath><clipPath id="mx-clip-332-166-120-24-0"><rect x="332" y="166" width="120" height="24"/></clipPath><clipPath id="mx-clip-332-192-120-24-0"><rect x="332" y="192" width="120" height="24"/></clipPath><clipPath id="mx-clip-332-218-120-24-0"><rect x="332" y="218" width="120" height="24"/></clipPath><clipPath id="mx-clip-332-304-120-28-0"><rect x="332" y="304" width="120" height="28"/></clipPath><clipPath id="mx-clip-302-304-20-28-0"><rect x="302" y="304" width="20" height="28"/></clipPath><clipPath id="mx-clip-332-339-120-24-0"><rect x="332" y="339" width="120" height="24"/></clipPath><clipPath id="mx-clip-332-365-120-24-0"><rect x="332" y="365" width="120" height="24"/></clipPath><clipPath id="mx-clip-332-391-120-24-0"><rect x="332" y="391" width="120" height="24"/></clipPath><clipPath id="mx-clip-332-417-120-24-0"><rect x="332" y="417" width="120" height="24"/></clipPath><clipPath id="mx-clip-332-443-120-24-0"><rect x="332" y="443" width="120" height="24"/></clipPath><clipPath id="mx-clip-332-469-120-24-0"><rect x="332" y="469" width="120" height="24"/></clipPath><clipPath id="mx-clip-332-495-120-24-0"><rect x="332" y="495" width="120" height="24"/></clipPath><clipPath id="mx-clip-332-521-120-24-0"><rect x="332" y="521" width="120" height="24"/></clipPath><clipPath id="mx-clip-332-616-120-28-0"><rect x="332" y="616" width="120" height="28"/></clipPath><clipPath id="mx-clip-302-616-20-28-0"><rect x="302" y="616" width="20" height="28"/></clipPath><clipPath id="mx-clip-332-651-120-24-0"><rect x="332" y="651" width="120" height="24"/></clipPath><clipPath id="mx-clip-332-677-120-24-0"><rect x="332" y="677" width="120" height="24"/></clipPath><clipPath id="mx-clip-332-703-120-24-0"><rect x="332" y="703" width="120" height="24"/></clipPath><clipPath id="mx-clip-332-729-120-24-0"><rect x="332" y="729" width="120" height="24"/></clipPath><clipPath id="mx-clip-582-127-120-28-0"><rect x="582" y="127" width="120" height="28"/></clipPath><clipPath id="mx-clip-552-127-20-28-0"><rect x="552" y="127" width="20" height="28"/></clipPath><clipPath id="mx-clip-582-162-120-24-0"><rect x="582" y="162" width="120" height="24"/></clipPath><clipPath id="mx-clip-582-188-120-24-0"><rect x="582" y="188" width="120" height="24"/></clipPath><clipPath id="mx-clip-582-214-120-24-0"><rect x="582" y="214" width="120" height="24"/></clipPath><clipPath id="mx-clip-582-240-120-24-0"><rect x="582" y="240" width="120" height="24"/></clipPath><clipPath id="mx-clip-582-266-120-24-0"><rect x="582" y="266" width="120" height="24"/></clipPath><clipPath id="mx-clip-582-292-120-24-0"><rect x="582" y="292" width="120" height="24"/></clipPath><clipPath id="mx-clip-582-318-120-24-0"><rect x="582" y="318" width="120" height="24"/></clipPath><clipPath id="mx-clip-582-344-120-24-0"><rect x="582" y="344" width="120" height="24"/></clipPath><clipPath id="mx-clip-582-370-120-24-0"><rect x="582" y="370" width="120" height="24"/></clipPath><clipPath id="mx-clip-582-396-120-24-0"><rect x="582" y="396" width="120" height="24"/></clipPath><clipPath id="mx-clip-582-422-120-24-0"><rect x="582" y="422" width="120" height="24"/></clipPath><clipPath id="mx-clip-582-448-120-24-0"><rect x="582" y="448" width="120" height="24"/></clipPath><clipPath id="mx-clip-582-474-120-24-0"><rect x="582" y="474" width="120" height="24"/></clipPath><clipPath id="mx-clip-582-500-120-24-0"><rect x="582" y="500" width="120" height="24"/></clipPath><clipPath id="mx-clip-582-526-120-24-0"><rect x="582" y="526" width="120" height="24"/></clipPath><clipPath id="mx-clip-582-552-120-24-0"><rect x="582" y="552" width="120" height="24"/></clipPath><clipPath id="mx-clip-582-578-120-24-0"><rect x="582" y="578" width="120" height="24"/></clipPath><clipPath id="mx-clip-582-604-120-24-0"><rect x="582" y="604" width="120" height="24"/></clipPath><clipPath id="mx-clip-792-136-120-28-0"><rect x="792" y="136" width="120" height="28"/></clipPath><clipPath id="mx-clip-762-136-20-28-0"><rect x="762" y="136" width="20" height="28"/></clipPath><clipPath id="mx-clip-792-171-120-24-0"><rect x="792" y="171" width="120" height="24"/></clipPath><clipPath id="mx-clip-792-197-120-24-0"><rect x="792" y="197" width="120" height="24"/></clipPath><clipPath id="mx-clip-792-223-120-24-0"><rect x="792" y="223" width="120" height="24"/></clipPath><clipPath id="mx-clip-792-249-120-24-0"><rect x="792" y="249" width="120" height="24"/></clipPath><clipPath id="mx-clip-1001-148-132-26-0"><rect x="1001" y="148" width="132" height="26"/></clipPath><clipPath id="mx-clip-1001-174-132-26-0"><rect x="1001" y="174" width="132" height="26"/></clipPath><clipPath id="mx-clip-1001-200-132-26-0"><rect x="1001" y="200" width="132" height="26"/></clipPath><clipPath id="mx-clip-1001-226-132-26-0"><rect x="1001" y="226" width="132" height="26"/></clipPath><clipPath id="mx-clip-792-405-120-28-0"><rect x="792" y="405" width="120" height="28"/></clipPath><clipPath id="mx-clip-762-405-20-28-0"><rect x="762" y="405" width="20" height="28"/></clipPath><clipPath id="mx-clip-792-440-120-24-0"><rect x="792" y="440" width="120" height="24"/></clipPath><clipPath id="mx-clip-792-466-120-24-0"><rect x="792" y="466" width="120" height="24"/></clipPath><clipPath id="mx-clip-792-492-120-24-0"><rect x="792" y="492" width="120" height="24"/></clipPath><clipPath id="mx-clip-792-518-120-24-0"><rect x="792" y="518" width="120" height="24"/></clipPath><clipPath id="mx-clip-792-544-120-24-0"><rect x="792" y="544" width="120" height="24"/></clipPath><clipPath id="mx-clip-792-570-120-24-0"><rect x="792" y="570" width="120" height="24"/></clipPath><clipPath id="mx-clip-991-412-132-26-0"><rect x="991" y="412" width="132" height="26"/></clipPath><clipPath id="mx-clip-991-438-132-26-0"><rect x="991" y="438" width="132" height="26"/></clipPath><clipPath id="mx-clip-991-464-132-26-0"><rect x="991" y="464" width="132" height="26"/></clipPath><clipPath id="mx-clip-62-27-120-28-0"><rect x="62" y="27" width="120" height="28"/></clipPath><clipPath id="mx-clip-32-27-20-28-0"><rect x="32" y="27" width="20" height="28"/></clipPath><clipPath id="mx-clip-62-62-120-24-0"><rect x="62" y="62" width="120" height="24"/></clipPath><clipPath id="mx-clip-62-88-120-24-0"><rect x="62" y="88" width="120" height="24"/></clipPath><clipPath id="mx-clip-62-114-120-24-0"><rect x="62" y="114" width="120" height="24"/></clipPath><clipPath id="mx-clip-62-203-120-28-0"><rect x="62" y="203" width="120" height="28"/></clipPath><clipPath id="mx-clip-32-203-20-28-0"><rect x="32" y="203" width="20" height="28"/></clipPath><clipPath id="mx-clip-62-238-120-24-0"><rect x="62" y="238" width="120" height="24"/></clipPath><clipPath id="mx-clip-62-264-120-24-0"><rect x="62" y="264" width="120" height="24"/></clipPath><clipPath id="mx-clip-62-290-120-24-0"><rect x="62" y="290" width="120" height="24"/></clipPath><clipPath id="mx-clip-62-316-120-24-0"><rect x="62" y="316" width="120" height="24"/></clipPath><clipPath id="mx-clip-62-426-120-28-0"><rect x="62" y="426" width="120" height="28"/></clipPath><clipPath id="mx-clip-32-426-20-28-0"><rect x="32" y="426" width="20" height="28"/></clipPath><clipPath id="mx-clip-62-461-120-24-0"><rect x="62" y="461" width="120" height="24"/></clipPath><clipPath id="mx-clip-62-487-120-24-0"><rect x="62" y="487" width="120" height="24"/></clipPath><clipPath id="mx-clip-62-513-120-24-0"><rect x="62" y="513" width="120" height="24"/></clipPath><clipPath id="mx-clip-62-539-120-24-0"><rect x="62" y="539" width="120" height="24"/></clipPath></defs><g><path d="M 297 26 L 297 0 L 457 0 L 457 26" fill="#e0e0e0" stroke="#000000" stroke-miterlimit="10" pointer-events="none"/><path d="M 297 26 L 297 248 L 457 248 L 457 26" fill="#ffffff" stroke="#000000" stroke-miterlimit="10" pointer-events="none"/><path d="M 297 26 L 457 26" fill="none" stroke="#000000" stroke-miterlimit="10" pointer-events="none"/><g fill="#000000" font-family="Helvetica" text-anchor="middle" font-size="14px"><text x="376.5" y="18.5">extracted_text</text></g><path d="M 297 26 M 457 26 M 457 56 L 297 56" fill="none" stroke="#000000" stroke-miterlimit="10" pointer-events="none"/><g fill="#000000" font-family="Helvetica" font-weight="bold" text-decoration="underline" clip-path="url(#mx-clip-332-27-120-28-0)" font-size="12px"><text x="333.5" y="44.5">warcId</text></g><path d="M 297 26 M 327 26 L 327 56 M 297 56" fill="none" stroke="#000000" stroke-miterlimit="10" pointer-events="none"/><g fill="#000000" font-family="Helvetica" clip-path="url(#mx-clip-302-27-20-28-0)" font-size="12px"><text x="303.5" y="44.5">PK</text></g><path d="M 297 56 M 457 56 M 457 82 M 297 82" fill="none" stroke="#000000" stroke-miterlimit="10" pointer-events="none"/><g fill="#000000" font-family="Helvetica" clip-path="url(#mx-clip-332-62-120-24-0)" font-size="12px"><text x="333.5" y="74.5">text</text></g><path d="M 297 56 M 327 56 L 327 82 M 297 82" fill="none" stroke="#000000" stroke-miterlimit="10" pointer-events="none"/><path d="M 297 82 M 457 82 M 457 108 M 297 108" fill="none" stroke="#000000" stroke-miterlimit="10" pointer-events="none"/><g fill="#000000" font-family="Helvetica" clip-path="url(#mx-clip-332-88-120-24-0)" font-size="12px"><text x="333.5" y="100.5">language</text></g><path d="M 297 82 M 327 82 L 327 108 M 297 108" fill="none" stroke="#000000" stroke-miterlimit="10" pointer-events="none"/><path d="M 297 108 M 457 108 M 457 134 M 297 134" fill="none" stroke="#000000" stroke-miterlimit="10" pointer-events="none"/><g fill="#000000" font-family="Helvetica" clip-path="url(#mx-clip-332-114-120-24-0)" font-size="12px"><text x="333.5" y="126.5">lix</text></g><path d="M 297 108 M 327 108 L 327 134 M 297 134" fill="none" stroke="#000000" stroke-miterlimit="10" pointer-events="none"/><path d="M 297 134 M 457 134 M 457 160 M 297 160" fill="none" stroke="#000000" stroke-miterlimit="10" pointer-events="none"/><g fill="#000000" font-family="Helvetica" clip-path="url(#mx-clip-332-140-120-24-0)" font-size="12px"><text x="333.5" y="152.5">charCount</text></g><path d="M 297 134 M 327 134 L 327 160 M 297 160" fill="none" stroke="#000000" stroke-miterlimit="10" pointer-events="none"/><path d="M 297 160 M 457 160 M 457 186 M 297 186" fill="none" stroke="#000000" stroke-miterlimit="10" pointer-events="none"/><g fill="#000000" font-family="Helvetica" clip-path="url(#mx-clip-332-166-120-24-0)" font-size="12px"><text x="333.5" y="178.5">wordCount</text></g><path d="M 297 160 M 327 160 L 327 186 M 297 186" fill="none" stroke="#000000" stroke-miterlimit="10" pointer-events="none"/><path d="M 297 186 M 457 186 M 457 212 M 297 212" fill="none" stroke="#000000" stroke-miterlimit="10" pointer-events="none"/><g fill="#000000" font-family="Helvetica" clip-path="url(#mx-clip-332-192-120-24-0)" font-size="12px"><text x="333.5" y="204.5">longWordCount</text></g><path d="M 297 186 M 327 186 L 327 212 M 297 212" fill="none" stroke="#000000" stroke-miterlimit="10" pointer-events="none"/><path d="M 297 212 M 457 212 M 457 238 M 297 238" fill="none" stroke="#000000" stroke-miterlimit="10" pointer-events="none"/><g fill="#000000" font-family="Helvetica" clip-path="url(#mx-clip-332-218-120-24-0)" font-size="12px"><text x="333.5" y="230.5">sentenceCount</text></g><path d="M 297 212 M 327 212 L 327 238 M 297 238" fill="none" stroke="#000000" stroke-miterlimit="10" pointer-events="none"/><path d="M 297 238 M 457 238 M 457 248 M 297 248" fill="none" stroke="#000000" stroke-miterlimit="10" pointer-events="none"/><path d="M 297 238 M 327 238 L 327 248 M 297 248" fill="none" stroke="#000000" stroke-miterlimit="10" pointer-events="none"/><path d="M 297 303 L 297 277 L 457 277 L 457 303" fill="#e0e0e0" stroke="#000000" stroke-miterlimit="10" pointer-events="none"/><path d="M 297 303 L 297 551 L 457 551 L 457 303" fill="#ffffff" stroke="#000000" stroke-miterlimit="10" pointer-events="none"/><path d="M 297 303 L 457 303" fill="none" stroke="#000000" stroke-miterlimit="10" pointer-events="none"/><g fill="#000000" font-family="Helvetica" text-anchor="middle" font-size="14px"><text x="376.5" y="295.5">crawl_log</text></g><path d="M 297 303 M 457 303 M 457 333 L 297 333" fill="none" stroke="#000000" stroke-miterlimit="10" pointer-events="none"/><g fill="#000000" font-family="Helvetica" font-weight="bold" text-decoration="underline" clip-path="url(#mx-clip-332-304-120-28-0)" font-size="12px"><text x="333.5" y="321.5">warcId</text></g><path d="M 297 303 M 327 303 L 327 333 M 297 333" fill="none" stroke="#000000" stroke-miterlimit="10" pointer-events="none"/><g fill="#000000" font-family="Helvetica" clip-path="url(#mx-clip-302-304-20-28-0)" font-size="12px"><text x="303.5" y="321.5">PK</text></g><path d="M 297 333 M 457 333 M 457 359 M 297 359" fill="none" stroke="#000000" stroke-miterlimit="10" pointer-events="none"/><g fill="#000000" font-family="Helvetica" clip-path="url(#mx-clip-332-339-120-24-0)" font-size="12px"><text x="333.5" y="351.5">warcRefersTo</text></g><path d="M 297 333 M 327 333 L 327 359 M 297 359" fill="none" stroke="#000000" stroke-miterlimit="10" pointer-events="none"/><path d="M 297 359 M 457 359 M 457 385 M 297 385" fill="none" stroke="#000000" stroke-miterlimit="10" pointer-events="none"/><g fill="#000000" font-family="Helvetica" clip-path="url(#mx-clip-332-365-120-24-0)" font-size="12px"><text x="333.5" y="377.5">executionId</text></g><path d="M 297 359 M 327 359 L 327 385 M 297 385" fill="none" stroke="#000000" stroke-miterlimit="10" pointer-events="none"/><path d="M 297 385 M 457 385 M 457 411 M 297 411" fill="none" stroke="#000000" stroke-miterlimit="10" pointer-events="none"/><g fill="#000000" font-family="Helvetica" clip-path="url(#mx-clip-332-391-120-24-0)" font-size="12px"><text x="333.5" y="403.5">contentType</text></g><path d="M 297 385 M 327 385 L 327 411 M 297 411" fill="none" stroke="#000000" stroke-miterlimit="10" pointer-events="none"/><path d="M 297 411 M 457 411 M 457 437 M 297 437" fill="none" stroke="#000000" stroke-miterlimit="10" pointer-events="none"/><g fill="#000000" font-family="Helvetica" clip-path="url(#mx-clip-332-417-120-24-0)" font-size="12px"><text x="333.5" y="429.5">discoveryPath</text></g><path d="M 297 411 M 327 411 L 327 437 M 297 437" fill="none" stroke="#000000" stroke-miterlimit="10" pointer-events="none"/><path d="M 297 437 M 457 437 M 457 463 M 297 463" fill="none" stroke="#000000" stroke-miterlimit="10" pointer-events="none"/><g fill="#000000" font-family="Helvetica" clip-path="url(#mx-clip-332-443-120-24-0)" font-size="12px"><text x="333.5" y="455.5">recordType</text></g><path d="M 297 437 M 327 437 L 327 463 M 297 463" fill="none" stroke="#000000" stroke-miterlimit="10" pointer-events="none"/><path d="M 297 463 M 457 463 M 457 489 M 297 489" fill="none" stroke="#000000" stroke-miterlimit="10" pointer-events="none"/><g fill="#000000" font-family="Helvetica" clip-path="url(#mx-clip-332-469-120-24-0)" font-size="12px"><text x="333.5" y="481.5">referrer</text></g><path d="M 297 463 M 327 463 L 327 489 M 297 489" fill="none" stroke="#000000" stroke-miterlimit="10" pointer-events="none"/><path d="M 297 489 M 457 489 M 457 515 M 297 515" fill="none" stroke="#000000" stroke-miterlimit="10" pointer-events="none"/><g fill="#000000" font-family="Helvetica" clip-path="url(#mx-clip-332-495-120-24-0)" font-size="12px"><text x="333.5" y="507.5">requestedUri</text></g><path d="M 297 489 M 327 489 L 327 515 M 297 515" fill="none" stroke="#000000" stroke-miterlimit="10" pointer-events="none"/><path d="M 297 515 M 457 515 M 457 541 M 297 541" fill="none" stroke="#000000" stroke-miterlimit="10" pointer-events="none"/><g fill="#000000" font-family="Helvetica" clip-path="url(#mx-clip-332-521-120-24-0)" font-size="12px"><text x="333.5" y="533.5">size</text></g><path d="M 297 515 M 327 515 L 327 541 M 297 541" fill="none" stroke="#000000" stroke-miterlimit="10" pointer-events="none"/><path d="M 297 541 M 457 541 M 457 551 M 297 551" fill="none" stroke="#000000" stroke-miterlimit="10" pointer-events="none"/><path d="M 297 541 M 327 541 L 327 551 M 297 551" fill="none" stroke="#000000" stroke-miterlimit="10" pointer-events="none"/><path d="M 297 615 L 297 589 L 457 589 L 457 615" fill="#e0e0e0" stroke="#000000" stroke-miterlimit="10" pointer-events="none"/><path d="M 297 615 L 297 759 L 457 759 L 457 615" fill="#ffffff" stroke="#000000" stroke-miterlimit="10" pointer-events="none"/><path d="M 297 615 L 457 615" fill="none" stroke="#000000" stroke-miterlimit="10" pointer-events="none"/><g fill="#000000" font-family="Helvetica" text-anchor="middle" font-size="14px"><text x="376.5" y="607.5">executions</text></g><path d="M 297 615 M 457 615 M 457 645 L 297 645" fill="none" stroke="#000000" stroke-miterlimit="10" pointer-events="none"/><g fill="#000000" font-family="Helvetica" font-weight="bold" text-decoration="underline" clip-path="url(#mx-clip-332-616-120-28-0)" font-size="12px"><text x="333.5" y="633.5">id</text></g><path d="M 297 615 M 327 615 L 327 645 M 297 645" fill="none" stroke="#000000" stroke-miterlimit="10" pointer-events="none"/><g fill="#000000" font-family="Helvetica" clip-path="url(#mx-clip-302-616-20-28-0)" font-size="12px"><text x="303.5" y="633.5">PK</text></g><path d="M 297 645 M 457 645 M 457 671 M 297 671" fill="none" stroke="#000000" stroke-miterlimit="10" pointer-events="none"/><g fill="#000000" font-family="Helvetica" clip-path="url(#mx-clip-332-651-120-24-0)" font-size="12px"><text x="333.5" y="663.5">startTime</text></g><path d="M 297 645 M 327 645 L 327 671 M 297 671" fill="none" stroke="#000000" stroke-miterlimit="10" pointer-events="none"/><path d="M 297 671 M 457 671 M 457 697 M 297 697" fill="none" stroke="#000000" stroke-miterlimit="10" pointer-events="none"/><g fill="#000000" font-family="Helvetica" clip-path="url(#mx-clip-332-677-120-24-0)" font-size="12px"><text x="333.5" y="689.5">endTime</text></g><path d="M 297 671 M 327 671 L 327 697 M 297 697" fill="none" stroke="#000000" stroke-miterlimit="10" pointer-events="none"/><path d="M 297 697 M 457 697 M 457 723 M 297 723" fill="none" stroke="#000000" stroke-miterlimit="10" pointer-events="none"/><g fill="#000000" font-family="Helvetica" clip-path="url(#mx-clip-332-703-120-24-0)" font-size="12px"><text x="333.5" y="715.5">seedId</text></g><path d="M 297 697 M 327 697 L 327 723 M 297 723" fill="none" stroke="#000000" stroke-miterlimit="10" pointer-events="none"/><path d="M 297 723 M 457 723 M 457 749 M 297 749" fill="none" stroke="#000000" stroke-miterlimit="10" pointer-events="none"/><g fill="#000000" font-family="Helvetica" clip-path="url(#mx-clip-332-729-120-24-0)" font-size="12px"><text x="333.5" y="741.5">jobExecutionId</text></g><path d="M 297 723 M 327 723 L 327 749 M 297 749" fill="none" stroke="#000000" stroke-miterlimit="10" pointer-events="none"/><path d="M 297 749 M 457 749 M 457 759 M 297 759" fill="none" stroke="#000000" stroke-miterlimit="10" pointer-events="none"/><path d="M 297 749 M 327 749 L 327 759 M 297 759" fill="none" stroke="#000000" stroke-miterlimit="10" pointer-events="none"/><path d="M 547 126 L 547 100 L 707 100 L 707 126" fill="#e0e0e0" stroke="#000000" stroke-miterlimit="10" pointer-events="none"/><path d="M 547 126 L 547 634 L 707 634 L 707 126" fill="#ffffff" stroke="#000000" stroke-miterlimit="10" pointer-events="none"/><path d="M 547 126 L 707 126" fill="none" stroke="#000000" stroke-miterlimit="10" pointer-events="none"/><g fill="#000000" font-family="Helvetica" text-anchor="middle" font-size="14px"><text x="626.5" y="118.5">aggregate</text></g><path d="M 547 126 M 707 126 M 707 156 L 547 156" fill="none" stroke="#000000" stroke-miterlimit="10" pointer-events="none"/><g fill="#000000" font-family="Helvetica" font-weight="bold" text-decoration="underline" clip-path="url(#mx-clip-582-127-120-28-0)" font-size="12px"><text x="583.5" y="144.5">warcId</text></g><path d="M 547 126 M 577 126 L 577 156 M 547 156" fill="none" stroke="#000000" stroke-miterlimit="10" pointer-events="none"/><g fill="#000000" font-family="Helvetica" clip-path="url(#mx-clip-552-127-20-28-0)" font-size="12px"><text x="553.5" y="144.5">PK</text></g><path d="M 547 156 M 707 156 M 707 182 M 547 182" fill="none" stroke="#000000" stroke-miterlimit="10" pointer-events="none"/><g fill="#000000" font-family="Helvetica" clip-path="url(#mx-clip-582-162-120-24-0)" font-size="12px"><text x="583.5" y="174.5">language</text></g><path d="M 547 156 M 577 156 L 577 182 M 547 182" fill="none" stroke="#000000" stroke-miterlimit="10" pointer-events="none"/><path d="M 547 182 M 707 182 M 707 208 M 547 208" fill="none" stroke="#000000" stroke-miterlimit="10" pointer-events="none"/><g fill="#000000" font-family="Helvetica" clip-path="url(#mx-clip-582-188-120-24-0)" font-size="12px"><text x="583.5" y="200.5">lix</text></g><path d="M 547 182 M 577 182 L 577 208 M 547 208" fill="none" stroke="#000000" stroke-miterlimit="10" pointer-events="none"/><path d="M 547 208 M 707 208 M 707 234 M 547 234" fill="none" stroke="#000000" stroke-miterlimit="10" pointer-events="none"/><g fill="#000000" font-family="Helvetica" clip-path="url(#mx-clip-582-214-120-24-0)" font-size="12px"><text x="583.5" y="226.5">charCount</text></g><path d="M 547 208 M 577 208 L 577 234 M 547 234" fill="none" stroke="#000000" stroke-miterlimit="10" pointer-events="none"/><path d="M 547 234 M 707 234 M 707 260 M 547 260" fill="none" stroke="#000000" stroke-miterlimit="10" pointer-events="none"/><g fill="#000000" font-family="Helvetica" clip-path="url(#mx-clip-582-240-120-24-0)" font-size="12px"><text x="583.5" y="252.5">wordCount</text></g><path d="M 547 234 M 577 234 L 577 260 M 547 260" fill="none" stroke="#000000" stroke-miterlimit="10" pointer-events="none"/><path d="M 547 260 M 707 260 M 707 286 M 547 286" fill="none" stroke="#000000" stroke-miterlimit="10" pointer-events="none"/><g fill="#000000" font-family="Helvetica" clip-path="url(#mx-clip-582-266-120-24-0)" font-size="12px"><text x="583.5" y="278.5">longWordCount</text></g><path d="M 547 260 M 577 260 L 577 286 M 547 286" fill="none" stroke="#000000" stroke-miterlimit="10" pointer-events="none"/><path d="M 547 286 M 707 286 M 707 312 M 547 312" fill="none" stroke="#000000" stroke-miterlimit="10" pointer-events="none"/><g fill="#000000" font-family="Helvetica" clip-path="url(#mx-clip-582-292-120-24-0)" font-size="12px"><text x="583.5" y="304.5">sentenceCount</text></g><path d="M 547 286 M 577 286 L 577 312 M 547 312" fill="none" stroke="#000000" stroke-miterlimit="10" pointer-events="none"/><path d="M 547 312 M 707 312 M 707 338 M 547 338" fill="none" stroke="#000000" stroke-miterlimit="10" pointer-events="none"/><g fill="#000000" font-family="Helvetica" clip-path="url(#mx-clip-582-318-120-24-0)" font-size="12px"><text x="583.5" y="330.5">executionId</text></g><path d="M 547 312 M 577 312 L 577 338 M 547 338" fill="none" stroke="#000000" stroke-miterlimit="10" pointer-events="none"/><path d="M 547 338 M 707 338 M 707 364 M 547 364" fill="none" stroke="#000000" stroke-miterlimit="10" pointer-events="none"/><g fill="#000000" font-family="Helvetica" clip-path="url(#mx-clip-582-344-120-24-0)" font-size="12px"><text x="583.5" y="356.5">contentType</text></g><path d="M 547 338 M 577 338 L 577 364 M 547 364" fill="none" stroke="#000000" stroke-miterlimit="10" pointer-events="none"/><path d="M 547 364 M 707 364 M 707 390 M 547 390" fill="none" stroke="#000000" stroke-miterlimit="10" pointer-events="none"/><g fill="#000000" font-family="Helvetica" clip-path="url(#mx-clip-582-370-120-24-0)" font-size="12px"><text x="583.5" y="382.5">discoveryPath</text></g><path d="M 547 364 M 577 364 L 577 390 M 547 390" fill="none" stroke="#000000" stroke-miterlimit="10" pointer-events="none"/><path d="M 547 390 M 707 390 M 707 416 M 547 416" fill="none" stroke="#000000" stroke-miterlimit="10" pointer-events="none"/><g fill="#000000" font-family="Helvetica" clip-path="url(#mx-clip-582-396-120-24-0)" font-size="12px"><text x="583.5" y="408.5">recordType</text></g><path d="M 547 390 M 577 390 L 577 416 M 547 416" fill="none" stroke="#000000" stroke-miterlimit="10" pointer-events="none"/><path d="M 547 416 M 707 416 M 707 442 M 547 442" fill="none" stroke="#000000" stroke-miterlimit="10" pointer-events="none"/><g fill="#000000" font-family="Helvetica" clip-path="url(#mx-clip-582-422-120-24-0)" font-size="12px"><text x="583.5" y="434.5">referrer</text></g><path d="M 547 416 M 577 416 L 577 442 M 547 442" fill="none" stroke="#000000" stroke-miterlimit="10" pointer-events="none"/><path d="M 547 442 M 707 442 M 707 468 M 547 468" fill="none" stroke="#000000" stroke-miterlimit="10" pointer-events="none"/><g fill="#000000" font-family="Helvetica" clip-path="url(#mx-clip-582-448-120-24-0)" font-size="12px"><text x="583.5" y="460.5">requestedUri</text></g><path d="M 547 442 M 577 442 L 577 468 M 547 468" fill="none" stroke="#000000" stroke-miterlimit="10" pointer-events="none"/><path d="M 547 468 M 707 468 M 707 494 M 547 494" fill="none" stroke="#000000" stroke-miterlimit="10" pointer-events="none"/><g fill="#000000" font-family="Helvetica" clip-path="url(#mx-clip-582-474-120-24-0)" font-size="12px"><text x="583.5" y="486.5">size</text></g><path d="M 547 468 M 577 468 L 577 494 M 547 494" fill="none" stroke="#000000" stroke-miterlimit="10" pointer-events="none"/><path d="M 547 494 M 707 494 M 707 520 M 547 520" fill="none" stroke="#000000" stroke-miterlimit="10" pointer-events="none"/><g fill="#000000" font-family="Helvetica" clip-path="url(#mx-clip-582-500-120-24-0)" font-size="12px"><text x="583.5" y="512.5">startTime</text></g><path d="M 547 494 M 577 494 L 577 520 M 547 520" fill="none" stroke="#000000" stroke-miterlimit="10" pointer-events="none"/><path d="M 547 520 M 707 520 M 707 546 M 547 546" fill="none" stroke="#000000" stroke-miterlimit="10" pointer-events="none"/><g fill="#000000" font-family="Helvetica" clip-path="url(#mx-clip-582-526-120-24-0)" font-size="12px"><text x="583.5" y="538.5">endTime</text></g><path d="M 547 520 M 577 520 L 577 546 M 547 546" fill="none" stroke="#000000" stroke-miterlimit="10" pointer-events="none"/><path d="M 547 546 M 707 546 M 707 572 M 547 572" fill="none" stroke="#000000" stroke-miterlimit="10" pointer-events="none"/><g fill="#000000" font-family="Helvetica" clip-path="url(#mx-clip-582-552-120-24-0)" font-size="12px"><text x="583.5" y="564.5">timestamp</text></g><path d="M 547 546 M 577 546 L 577 572 M 547 572" fill="none" stroke="#000000" stroke-miterlimit="10" pointer-events="none"/><path d="M 547 572 M 707 572 M 707 598 M 547 598" fill="none" stroke="#000000" stroke-miterlimit="10" pointer-events="none"/><g fill="#000000" font-family="Helvetica" clip-path="url(#mx-clip-582-578-120-24-0)" font-size="12px"><text x="583.5" y="590.5">seedId</text></g><path d="M 547 572 M 577 572 L 577 598 M 547 598" fill="none" stroke="#000000" stroke-miterlimit="10" pointer-events="none"/><path d="M 547 598 M 707 598 M 707 624 M 547 624" fill="none" stroke="#000000" stroke-miterlimit="10" pointer-events="none"/><g fill="#000000" font-family="Helvetica" clip-path="url(#mx-clip-582-604-120-24-0)" font-size="12px"><text x="583.5" y="616.5">jobExecutionId</text></g><path d="M 547 598 M 577 598 L 577 624 M 547 624" fill="none" stroke="#000000" stroke-miterlimit="10" pointer-events="none"/><path d="M 547 624 M 707 624 M 707 634 M 547 634" fill="none" stroke="#000000" stroke-miterlimit="10" pointer-events="none"/><path d="M 547 624 M 577 624 L 577 634 M 547 634" fill="none" stroke="#000000" stroke-miterlimit="10" pointer-events="none"/><path d="M 297 41 L 277 41 L 277 318 L 290.63 318" fill="none" stroke="#000000" stroke-miterlimit="10" pointer-events="none"/><path d="M 295.88 318 L 288.88 321.5 L 290.63 318 L 288.88 314.5 Z" fill="#000000" stroke="#000000" stroke-miterlimit="10" pointer-events="none"/><path d="M 297 372 L 277 372 L 277 630 L 290.63 630" fill="none" stroke="#000000" stroke-miterlimit="10" pointer-events="none"/><path d="M 295.88 630 L 288.88 633.5 L 290.63 630 L 288.88 626.5 Z" fill="#000000" stroke="#000000" stroke-miterlimit="10" pointer-events="none"/><path d="M 457 346 L 517 346 L 517 140 L 540.64 140.79" fill="none" stroke="#000000" stroke-miterlimit="10" pointer-events="none"/><path d="M 545.88 140.96 L 538.77 144.23 L 540.64 140.79 L 539 137.23 Z" fill="#000000" stroke="#000000" stroke-miterlimit="10" pointer-events="none"/><path d="M 757 134.5 L 757 108.5 L 917 108.5 L 917 134.5" fill="#e0e0e0" stroke="#000000" stroke-miterlimit="10" pointer-events="none"/><path d="M 757 134.5 L 757 278.5 L 917 278.5 L 917 134.5" fill="#ffffff" stroke="#000000" stroke-miterlimit="10" pointer-events="none"/><path d="M 757 134.5 L 917 134.5" fill="none" stroke="#000000" stroke-miterlimit="10" pointer-events="none"/><g fill="#000000" font-family="Helvetica" text-anchor="middle" font-size="14px"><text x="836.5" y="127">filter</text></g><path d="M 757 134.5 M 917 134.5 M 917 164.5 L 757 164.5" fill="none" stroke="#000000" stroke-miterlimit="10" pointer-events="none"/><g fill="#000000" font-family="Helvetica" font-weight="bold" text-decoration="underline" clip-path="url(#mx-clip-792-136-120-28-0)" font-size="12px"><text x="793.5" y="153">id</text></g><path d="M 757 134.5 M 787 134.5 L 787 164.5 M 757 164.5" fill="none" stroke="#000000" stroke-miterlimit="10" pointer-events="none"/><g fill="#000000" font-family="Helvetica" clip-path="url(#mx-clip-762-136-20-28-0)" font-size="12px"><text x="763.5" y="153">PK</text></g><path d="M 757 164.5 M 917 164.5 M 917 190.5 M 757 190.5" fill="none" stroke="#000000" stroke-miterlimit="10" pointer-events="none"/><g fill="#000000" font-family="Helvetica" clip-path="url(#mx-clip-792-171-120-24-0)" font-size="12px"><text x="793.5" y="183">seedId</text></g><path d="M 757 164.5 M 787 164.5 L 787 190.5 M 757 190.5" fill="none" stroke="#000000" stroke-miterlimit="10" pointer-events="none"/><path d="M 757 190.5 M 917 190.5 M 917 216.5 M 757 216.5" fill="none" stroke="#000000" stroke-miterlimit="10" pointer-events="none"/><g fill="#000000" font-family="Helvetica" clip-path="url(#mx-clip-792-197-120-24-0)" font-size="12px"><text x="793.5" y="209">validTo</text></g><path d="M 757 190.5 M 787 190.5 L 787 216.5 M 757 216.5" fill="none" stroke="#000000" stroke-miterlimit="10" pointer-events="none"/><path d="M 757 216.5 M 917 216.5 M 917 242.5 M 757 242.5" fill="none" stroke="#000000" stroke-miterlimit="10" pointer-events="none"/><g fill="#000000" font-family="Helvetica" clip-path="url(#mx-clip-792-223-120-24-0)" font-size="12px"><text x="793.5" y="235">validFrom</text></g><path d="M 757 216.5 M 787 216.5 L 787 242.5 M 757 242.5" fill="none" stroke="#000000" stroke-miterlimit="10" pointer-events="none"/><path d="M 757 242.5 M 917 242.5 M 917 268.5 M 757 268.5" fill="none" stroke="#000000" stroke-miterlimit="10" pointer-events="none"/><g fill="#000000" font-family="Helvetica" clip-path="url(#mx-clip-792-249-120-24-0)" font-size="12px"><text x="793.5" y="261">filters</text></g><path d="M 757 242.5 M 787 242.5 L 787 268.5 M 757 268.5" fill="none" stroke="#000000" stroke-miterlimit="10" pointer-events="none"/><path d="M 757 268.5 M 917 268.5 M 917 278.5 M 757 278.5" fill="none" stroke="#000000" stroke-miterlimit="10" pointer-events="none"/><path d="M 757 268.5 M 787 268.5 L 787 278.5 M 757 278.5" fill="none" stroke="#000000" stroke-miterlimit="10" pointer-events="none"/><path d="M 997 143 L 997 121 L 1137 121 L 1137 143" fill="none" stroke="#000000" stroke-miterlimit="10" pointer-events="none"/><path d="M 997 143 L 997 247 L 1137 247 L 1137 143" fill="#ffffff" stroke="#000000" stroke-miterlimit="10" pointer-events="none"/><path d="M 997 143 L 1137 143" fill="none" stroke="#000000" stroke-miterlimit="10" pointer-events="none"/><g fill="#000000" font-family="Helvetica" text-anchor="middle" font-size="14px"><text x="1066.5" y="137.5">filters</text></g><g fill="#000000" font-family="Helvetica" clip-path="url(#mx-clip-1001-148-132-26-0)" font-size="12px"><text x="1002.5" y="160.5">name</text></g><g fill="#000000" font-family="Helvetica" clip-path="url(#mx-clip-1001-174-132-26-0)" font-size="12px"><text x="1002.5" y="186.5">field</text></g><g fill="#000000" font-family="Helvetica" clip-path="url(#mx-clip-1001-200-132-26-0)" font-size="12px"><text x="1002.5" y="212.5">value</text></g><g fill="#000000" font-family="Helvetica" clip-path="url(#mx-clip-1001-226-132-26-0)" font-size="12px"><text x="1002.5" y="238.5">exclusive</text></g><path d="M 457 318 L 497 318 L 497 140 L 540.63 140.87" fill="none" stroke="#000000" stroke-miterlimit="10" pointer-events="none"/><path d="M 545.88 140.98 L 538.81 144.34 L 540.63 140.87 L 538.95 137.34 Z" fill="#000000" stroke="#000000" stroke-miterlimit="10" pointer-events="none"/><path d="M 757 404 L 757 378 L 917 378 L 917 404" fill="#e0e0e0" stroke="#000000" stroke-miterlimit="10" pointer-events="none"/><path d="M 757 404 L 757 600 L 917 600 L 917 404" fill="#ffffff" stroke="#000000" stroke-miterlimit="10" pointer-events="none"/><path d="M 757 404 L 917 404" fill="none" stroke="#000000" stroke-miterlimit="10" pointer-events="none"/><g fill="#000000" font-family="Helvetica" text-anchor="middle" font-size="14px"><text x="836.5" y="396.5">statistics</text></g><path d="M 757 404 M 917 404 M 917 434 L 757 434" fill="none" stroke="#000000" stroke-miterlimit="10" pointer-events="none"/><g fill="#000000" font-family="Helvetica" font-weight="bold" text-decoration="underline" clip-path="url(#mx-clip-792-405-120-28-0)" font-size="12px"><text x="793.5" y="422.5">executionId</text></g><path d="M 757 404 M 787 404 L 787 434 M 757 434" fill="none" stroke="#000000" stroke-miterlimit="10" pointer-events="none"/><g fill="#000000" font-family="Helvetica" clip-path="url(#mx-clip-762-405-20-28-0)" font-size="12px"><text x="763.5" y="422.5">PK</text></g><path d="M 757 434 M 917 434 M 917 460 M 757 460" fill="none" stroke="#000000" stroke-miterlimit="10" pointer-events="none"/><g fill="#000000" font-family="Helvetica" clip-path="url(#mx-clip-792-440-120-24-0)" font-size="12px"><text x="793.5" y="452.5">endTime</text></g><path d="M 757 434 M 787 434 L 787 460 M 757 460" fill="none" stroke="#000000" stroke-miterlimit="10" pointer-events="none"/><path d="M 757 460 M 917 460 M 917 486 M 757 486" fill="none" stroke="#000000" stroke-miterlimit="10" pointer-events="none"/><g fill="#000000" font-family="Helvetica" clip-path="url(#mx-clip-792-466-120-24-0)" font-size="12px"><text x="793.5" y="478.5">jobExecutionId</text></g><path d="M 757 460 M 787 460 L 787 486 M 757 486" fill="none" stroke="#000000" stroke-miterlimit="10" pointer-events="none"/><path d="M 757 486 M 917 486 M 917 512 M 757 512" fill="none" stroke="#000000" stroke-miterlimit="10" pointer-events="none"/><g fill="#000000" font-family="Helvetica" clip-path="url(#mx-clip-792-492-120-24-0)" font-size="12px"><text x="793.5" y="504.5">executionId</text></g><path d="M 757 486 M 787 486 L 787 512 M 757 512" fill="none" stroke="#000000" stroke-miterlimit="10" pointer-events="none"/><path d="M 757 512 M 917 512 M 917 538 M 757 538" fill="none" stroke="#000000" stroke-miterlimit="10" pointer-events="none"/><g fill="#000000" font-family="Helvetica" clip-path="url(#mx-clip-792-518-120-24-0)" font-size="12px"><text x="793.5" y="530.5">entityId</text></g><path d="M 757 512 M 787 512 L 787 538 M 757 538" fill="none" stroke="#000000" stroke-miterlimit="10" pointer-events="none"/><path d="M 757 538 M 917 538 M 917 564 M 757 564" fill="none" stroke="#000000" stroke-miterlimit="10" pointer-events="none"/><g fill="#000000" font-family="Helvetica" clip-path="url(#mx-clip-792-544-120-24-0)" font-size="12px"><text x="793.5" y="556.5">seedId</text></g><path d="M 757 538 M 787 538 L 787 564 M 757 564" fill="none" stroke="#000000" stroke-miterlimit="10" pointer-events="none"/><path d="M 757 564 M 917 564 M 917 590 M 757 590" fill="none" stroke="#000000" stroke-miterlimit="10" pointer-events="none"/><g fill="#000000" font-family="Helvetica" clip-path="url(#mx-clip-792-570-120-24-0)" font-size="12px"><text x="793.5" y="582.5">statistic</text></g><path d="M 757 564 M 787 564 L 787 590 M 757 590" fill="none" stroke="#000000" stroke-miterlimit="10" pointer-events="none"/><path d="M 757 590 M 917 590 M 917 600 M 757 600" fill="none" stroke="#000000" stroke-miterlimit="10" pointer-events="none"/><path d="M 757 590 M 787 590 L 787 600 M 757 600" fill="none" stroke="#000000" stroke-miterlimit="10" pointer-events="none"/><path d="M 987 407 L 987 385 L 1127 385 L 1127 407" fill="none" stroke="#000000" stroke-miterlimit="10" pointer-events="none"/><path d="M 987 407 L 987 485 L 1127 485 L 1127 407" fill="#ffffff" stroke="#000000" stroke-miterlimit="10" pointer-events="none"/><path d="M 987 407 L 1127 407" fill="none" stroke="#000000" stroke-miterlimit="10" pointer-events="none"/><g fill="#000000" font-family="Helvetica" text-anchor="middle" font-size="14px"><text x="1056.5" y="401.5">language</text></g><g fill="#000000" font-family="Helvetica" clip-path="url(#mx-clip-991-412-132-26-0)" font-size="12px"><text x="992.5" y="424.5">total</text></g><g fill="#000000" font-family="Helvetica" clip-path="url(#mx-clip-991-438-132-26-0)" font-size="12px"><text x="992.5" y="450.5">short</text></g><g fill="#000000" font-family="Helvetica" clip-path="url(#mx-clip-991-464-132-26-0)" font-size="12px"><text x="992.5" y="476.5">long</text></g><path d="M 917 256 L 937 256 Q 947 256 949.61 246.35 L 964.39 191.65 Q 967 182 977 182 L 997 182" fill="none" stroke="#000000" stroke-miterlimit="10" pointer-events="none"/><ellipse cx="985" cy="182" rx="3" ry="3" fill="#ffffff" stroke="#000000" pointer-events="none"/><path d="M 997 178 L 989 182 L 997 186" fill="none" stroke="#000000" stroke-miterlimit="10" pointer-events="none"/><path d="M 917 577 L 937 577 Q 947 577 947.6 567.02 L 956.4 419.98 Q 957 410 967 410 L 987 410" fill="none" stroke="#000000" stroke-miterlimit="10" pointer-events="none"/><path d="M 979 414 L 979 406 M 987 406 L 979 410 L 987 414" fill="none" stroke="#000000" stroke-miterlimit="10" pointer-events="none"/><path d="M 27 26 L 27 0 L 187 0 L 187 26" fill="#e0e0e0" stroke="#000000" stroke-miterlimit="10" pointer-events="none"/><path d="M 27 26 L 27 144 L 187 144 L 187 26" fill="#ffffff" stroke="#000000" stroke-miterlimit="10" pointer-events="none"/><path d="M 27 26 L 187 26" fill="none" stroke="#000000" stroke-miterlimit="10" pointer-events="none"/><g fill="#000000" font-family="Helvetica" text-anchor="middle" font-size="14px"><text x="106.5" y="18.5">entity</text></g><path d="M 27 26 M 187 26 M 187 56 L 27 56" fill="none" stroke="#000000" stroke-miterlimit="10" pointer-events="none"/><g fill="#000000" font-family="Helvetica" font-weight="bold" text-decoration="underline" clip-path="url(#mx-clip-62-27-120-28-0)" font-size="12px"><text x="63.5" y="44.5">id</text></g><path d="M 27 26 M 57 26 L 57 56 M 27 56" fill="none" stroke="#000000" stroke-miterlimit="10" pointer-events="none"/><g fill="#000000" font-family="Helvetica" clip-path="url(#mx-clip-32-27-20-28-0)" font-size="12px"><text x="33.5" y="44.5">PK</text></g><path d="M 27 56 M 187 56 M 187 82 M 27 82" fill="none" stroke="#000000" stroke-miterlimit="10" pointer-events="none"/><g fill="#000000" font-family="Helvetica" clip-path="url(#mx-clip-62-62-120-24-0)" font-size="12px"><text x="63.5" y="74.5">name</text></g><path d="M 27 56 M 57 56 L 57 82 M 27 82" fill="none" stroke="#000000" stroke-miterlimit="10" pointer-events="none"/><path d="M 27 82 M 187 82 M 187 108 M 27 108" fill="none" stroke="#000000" stroke-miterlimit="10" pointer-events="none"/><g fill="#000000" font-family="Helvetica" clip-path="url(#mx-clip-62-88-120-24-0)" font-size="12px"><text x="63.5" y="100.5">description</text></g><path d="M 27 82 M 57 82 L 57 108 M 27 108" fill="none" stroke="#000000" stroke-miterlimit="10" pointer-events="none"/><path d="M 27 108 M 187 108 M 187 134 M 27 134" fill="none" stroke="#000000" stroke-miterlimit="10" pointer-events="none"/><g fill="#000000" font-family="Helvetica" clip-path="url(#mx-clip-62-114-120-24-0)" font-size="12px"><text x="63.5" y="126.5">label</text></g><path d="M 27 108 M 57 108 L 57 134 M 27 134" fill="none" stroke="#000000" stroke-miterlimit="10" pointer-events="none"/><path d="M 27 134 M 187 134 M 187 144 M 27 144" fill="none" stroke="#000000" stroke-miterlimit="10" pointer-events="none"/><path d="M 27 134 M 57 134 L 57 144 M 27 144" fill="none" stroke="#000000" stroke-miterlimit="10" pointer-events="none"/><path d="M 27 202 L 27 176 L 187 176 L 187 202" fill="#e0e0e0" stroke="#000000" stroke-miterlimit="10" pointer-events="none"/><path d="M 27 202 L 27 346 L 187 346 L 187 202" fill="#ffffff" stroke="#000000" stroke-miterlimit="10" pointer-events="none"/><path d="M 27 202 L 187 202" fill="none" stroke="#000000" stroke-miterlimit="10" pointer-events="none"/><g fill="#000000" font-family="Helvetica" text-anchor="middle" font-size="14px"><text x="106.5" y="194.5">seed</text></g><path d="M 27 202 M 187 202 M 187 232 L 27 232" fill="none" stroke="#000000" stroke-miterlimit="10" pointer-events="none"/><g fill="#000000" font-family="Helvetica" font-weight="bold" text-decoration="underline" clip-path="url(#mx-clip-62-203-120-28-0)" font-size="12px"><text x="63.5" y="220.5">id</text></g><path d="M 27 202 M 57 202 L 57 232 M 27 232" fill="none" stroke="#000000" stroke-miterlimit="10" pointer-events="none"/><g fill="#000000" font-family="Helvetica" clip-path="url(#mx-clip-32-203-20-28-0)" font-size="12px"><text x="33.5" y="220.5">PK</text></g><path d="M 27 232 M 187 232 M 187 258 M 27 258" fill="none" stroke="#000000" stroke-miterlimit="10" pointer-events="none"/><g fill="#000000" font-family="Helvetica" clip-path="url(#mx-clip-62-238-120-24-0)" font-size="12px"><text x="63.5" y="250.5">entityRef</text></g><path d="M 27 232 M 57 232 L 57 258 M 27 258" fill="none" stroke="#000000" stroke-miterlimit="10" pointer-events="none"/><path d="M 27 258 M 187 258 M 187 284 M 27 284" fill="none" stroke="#000000" stroke-miterlimit="10" pointer-events="none"/><g fill="#000000" font-family="Helvetica" clip-path="url(#mx-clip-62-264-120-24-0)" font-size="12px"><text x="63.5" y="276.5">name (url)</text></g><path d="M 27 258 M 57 258 L 57 284 M 27 284" fill="none" stroke="#000000" stroke-miterlimit="10" pointer-events="none"/><path d="M 27 284 M 187 284 M 187 310 M 27 310" fill="none" stroke="#000000" stroke-miterlimit="10" pointer-events="none"/><g fill="#000000" font-family="Helvetica" clip-path="url(#mx-clip-62-290-120-24-0)" font-size="12px"><text x="63.5" y="302.5">description</text></g><path d="M 27 284 M 57 284 L 57 310 M 27 310" fill="none" stroke="#000000" stroke-miterlimit="10" pointer-events="none"/><path d="M 27 310 M 187 310 M 187 336 M 27 336" fill="none" stroke="#000000" stroke-miterlimit="10" pointer-events="none"/><g fill="#000000" font-family="Helvetica" clip-path="url(#mx-clip-62-316-120-24-0)" font-size="12px"><text x="63.5" y="328.5">label</text></g><path d="M 27 310 M 57 310 L 57 336 M 27 336" fill="none" stroke="#000000" stroke-miterlimit="10" pointer-events="none"/><path d="M 27 336 M 187 336 M 187 346 M 27 346" fill="none" stroke="#000000" stroke-miterlimit="10" pointer-events="none"/><path d="M 27 336 M 57 336 L 57 346 M 27 346" fill="none" stroke="#000000" stroke-miterlimit="10" pointer-events="none"/><path d="M 27 245 L 7 245 L 7 41 L 20.63 41" fill="none" stroke="#000000" stroke-miterlimit="10" pointer-events="none"/><path d="M 25.88 41 L 18.88 44.5 L 20.63 41 L 18.88 37.5 Z" fill="#000000" stroke="#000000" stroke-miterlimit="10" pointer-events="none"/><path d="M 297 710 L 242 710 L 242 217 L 193.37 217" fill="none" stroke="#000000" stroke-miterlimit="10" pointer-events="none"/><path d="M 188.12 217 L 195.12 213.5 L 193.37 217 L 195.12 220.5 Z" fill="#000000" stroke="#000000" stroke-miterlimit="10" pointer-events="none"/><path d="M 27 424.5 L 27 398.5 L 187 398.5 L 187 424.5" fill="#e0e0e0" stroke="#000000" stroke-miterlimit="10" pointer-events="none"/><path d="M 27 424.5 L 27 568.5 L 187 568.5 L 187 424.5" fill="#ffffff" stroke="#000000" stroke-miterlimit="10" pointer-events="none"/><path d="M 27 424.5 L 187 424.5" fill="none" stroke="#000000" stroke-miterlimit="10" pointer-events="none"/><g fill="#000000" font-family="Helvetica" text-anchor="middle" font-size="14px"><text x="106.5" y="417">job_executions</text></g><path d="M 27 424.5 M 187 424.5 M 187 454.5 L 27 454.5" fill="none" stroke="#000000" stroke-miterlimit="10" pointer-events="none"/><g fill="#000000" font-family="Helvetica" font-weight="bold" text-decoration="underline" clip-path="url(#mx-clip-62-426-120-28-0)" font-size="12px"><text x="63.5" y="443">id</text></g><path d="M 27 424.5 M 57 424.5 L 57 454.5 M 27 454.5" fill="none" stroke="#000000" stroke-miterlimit="10" pointer-events="none"/><g fill="#000000" font-family="Helvetica" clip-path="url(#mx-clip-32-426-20-28-0)" font-size="12px"><text x="33.5" y="443">PK</text></g><path d="M 27 454.5 M 187 454.5 M 187 480.5 M 27 480.5" fill="none" stroke="#000000" stroke-miterlimit="10" pointer-events="none"/><g fill="#000000" font-family="Helvetica" clip-path="url(#mx-clip-62-461-120-24-0)" font-size="12px"><text x="63.5" y="473">jobId</text></g><path d="M 27 454.5 M 57 454.5 L 57 480.5 M 27 480.5" fill="none" stroke="#000000" stroke-miterlimit="10" pointer-events="none"/><path d="M 27 480.5 M 187 480.5 M 187 506.5 M 27 506.5" fill="none" stroke="#000000" stroke-miterlimit="10" pointer-events="none"/><g fill="#000000" font-family="Helvetica" clip-path="url(#mx-clip-62-487-120-24-0)" font-size="12px"><text x="63.5" y="499">startTime</text></g><path d="M 27 480.5 M 57 480.5 L 57 506.5 M 27 506.5" fill="none" stroke="#000000" stroke-miterlimit="10" pointer-events="none"/><path d="M 27 506.5 M 187 506.5 M 187 532.5 M 27 532.5" fill="none" stroke="#000000" stroke-miterlimit="10" pointer-events="none"/><g fill="#000000" font-family="Helvetica" clip-path="url(#mx-clip-62-513-120-24-0)" font-size="12px"><text x="63.5" y="525">endTime</text></g><path d="M 27 506.5 M 57 506.5 L 57 532.5 M 27 532.5" fill="none" stroke="#000000" stroke-miterlimit="10" pointer-events="none"/><path d="M 27 532.5 M 187 532.5 M 187 558.5 M 27 558.5" fill="none" stroke="#000000" stroke-miterlimit="10" pointer-events="none"/><g fill="#000000" font-family="Helvetica" clip-path="url(#mx-clip-62-539-120-24-0)" font-size="12px"><text x="63.5" y="551">state</text></g><path d="M 27 532.5 M 57 532.5 L 57 558.5 M 27 558.5" fill="none" stroke="#000000" stroke-miterlimit="10" pointer-events="none"/><path d="M 27 558.5 M 187 558.5 M 187 568.5 M 27 568.5" fill="none" stroke="#000000" stroke-miterlimit="10" pointer-events="none"/><path d="M 27 558.5 M 57 558.5 L 57 568.5 M 27 568.5" fill="none" stroke="#000000" stroke-miterlimit="10" pointer-events="none"/><path d="M 297 736 L 7 736 L 7 440 L 20.63 440" fill="none" stroke="#000000" stroke-miterlimit="10" pointer-events="none"/><path d="M 25.88 440 L 18.88 443.5 L 20.63 440 L 18.88 436.5 Z" fill="#000000" stroke="#000000" stroke-miterlimit="10" pointer-events="none"/></g></svg>